# xmcd
#
# Track frame offsets:
# 150
# 9703
# 13185
# 24097
# 25084
# 46652
# 54828
# 63767
# 66311
# 78004
# 86481
# 102743
# 118709
#
# Disc length: 1798 seconds
#
# Revision: 0
# Processed by: cddbd v1.5.1PL2 Copyright (c) Steve Scherf et al.
# Submitted via: Axialis_AX_CDPlayer 2.6
#
DISCID=9307040d
DTITLE=Brigitte Fontaine - Brigitte Fontaine
DYEAR=1900
DGENRE=
TTITLE0=Brigitte
TTITLE1=
TTITLE2=
TTITLE3=
TTITLE4=
TTITLE5=
TTITLE6=
TTITLE7=
TTITLE8=
TTITLE9=
TTITLE10=
TTITLE11=
TTITLE12=
EXTD=
EXTT0=
EXTT1=
EXTT2=
EXTT3=
EXTT4=
EXTT5=
EXTT6=
EXTT7=
EXTT8=
EXTT9=
EXTT10=
EXTT11=
EXTT12=
PLAYORDER=
